<svg xmlns="http://www.w3.org/2000/svg" viewBox="90.0 96.0 730.0 344.0" width="730.0" height="344.0">
<rect x="90.0" y="96.0" width="730.0" height="344.0" fill="#101216"/>
<g fill="none" stroke-linecap="round" stroke-linejoin="round">
<polyline points="210.0,380.0 210.0,250.0 360.0,250.0" stroke="#ffaa37" stroke-width="2.4"/>
<polyline points="130.0,380.0 130.0,270.0 360.0,270.0" stroke="#ffaa37" stroke-width="2.4"/>
<polyline points="360.0,250.0 500.0,250.0" stroke="#ffaa37" stroke-width="2.4"/>
<polyline points="360.0,250.0 702.7,250.0 702.7,240.0" stroke="#ffaa37" stroke-width="2.4"/>
<polyline points="360.0,270.0 668.0,270.0 668.0,240.0" stroke="#ffaa37" stroke-width="2.4"/>
<polyline points="360.0,330.0 772.0,330.0 772.0,240.0" stroke="#ffaa37" stroke-width="2.4"/>
<polyline points="360.0,310.0 737.3,310.0 737.3,240.0" stroke="#ffaa37" stroke-width="2.4"/>
<polyline points="360.0,250.0 360.0,150.0 550.0,150.0" stroke="#ffaa37" stroke-width="2.4"/>
<polyline points="630.0,150.0 630.0,330.0 360.0,330.0" stroke="#ffaa37" stroke-width="2.4"/>
<polyline points="360.0,250.0 650.0,250.0 650.0,150.0" stroke="#ffaa37" stroke-width="2.4"/>
<polyline points="730.0,150.0 730.0,310.0 360.0,310.0" stroke="#ffaa37" stroke-width="2.4"/>
<rect x="130.0" y="360.0" width="80.0" height="40.0" rx="4" fill="none" stroke="#ffb950" stroke-width="2"/>
<text x="170.0" y="378.0" fill="#ffb950" font-family="Arial, sans-serif" font-size="12" text-anchor="middle">Battery</text>
<text x="170.0" y="415.0" fill="#e1e4e8" font-family="Arial, sans-serif" font-size="11" text-anchor="middle">BAT1</text>
<text x="170.0" y="353.0" fill="#9aa4ae" font-family="Arial, sans-serif" font-size="10" text-anchor="middle">9V</text>
<circle cx="130.0" cy="380.0" r="3.2" fill="#facd5f" stroke="#281f14" stroke-width="1"/>
<circle cx="210.0" cy="380.0" r="3.2" fill="#facd5f" stroke="#281f14" stroke-width="1"/>
<rect x="360.0" y="230.0" width="140.0" height="160.0" rx="4" fill="#3e2e16" stroke="#ffb950" stroke-width="2"/>
<text x="430.0" y="308.0" fill="#ffb950" font-family="Arial, sans-serif" font-size="12" text-anchor="middle">ESP32 WROOM</text>
<text x="430.0" y="405.0" fill="#e1e4e8" font-family="Arial, sans-serif" font-size="11" text-anchor="middle">ESP1</text>
<text x="430.0" y="223.0" fill="#9aa4ae" font-family="Arial, sans-serif" font-size="10" text-anchor="middle">ESP32-WROOM</text>
<circle cx="360.0" cy="250.0" r="3.2" fill="#facd5f" stroke="#281f14" stroke-width="1"/>
<circle cx="360.0" cy="270.0" r="3.2" fill="#facd5f" stroke="#281f14" stroke-width="1"/>
<circle cx="360.0" cy="290.0" r="3.2" fill="#facd5f" stroke="#281f14" stroke-width="1"/>
<circle cx="360.0" cy="310.0" r="3.2" fill="#facd5f" stroke="#281f14" stroke-width="1"/>
<circle cx="360.0" cy="330.0" r="3.2" fill="#facd5f" stroke="#281f14" stroke-width="1"/>
<circle cx="360.0" cy="350.0" r="3.2" fill="#facd5f" stroke="#281f14" stroke-width="1"/>
<circle cx="360.0" cy="370.0" r="3.2" fill="#facd5f" stroke="#281f14" stroke-width="1"/>
<circle cx="500.0" cy="250.0" r="3.2" fill="#facd5f" stroke="#281f14" stroke-width="1"/>
<circle cx="500.0" cy="270.0" r="3.2" fill="#facd5f" stroke="#281f14" stroke-width="1"/>
<circle cx="500.0" cy="290.0" r="3.2" fill="#facd5f" stroke="#281f14" stroke-width="1"/>
<circle cx="500.0" cy="310.0" r="3.2" fill="#facd5f" stroke="#281f14" stroke-width="1"/>
<circle cx="500.0" cy="330.0" r="3.2" fill="#facd5f" stroke="#281f14" stroke-width="1"/>
<circle cx="500.0" cy="350.0" r="3.2" fill="#facd5f" stroke="#281f14" stroke-width="1"/>
<circle cx="500.0" cy="370.0" r="3.2" fill="#facd5f" stroke="#281f14" stroke-width="1"/>
<rect x="660.0" y="240.0" width="120.0" height="120.0" rx="4" fill="#3e2e16" stroke="#ffb950" stroke-width="2"/>
<text x="720.0" y="298.0" fill="#ffb950" font-family="Arial, sans-serif" font-size="12" text-anchor="middle">OLED I2C</text>
<text x="720.0" y="375.0" fill="#e1e4e8" font-family="Arial, sans-serif" font-size="11" text-anchor="middle">OLED1</text>
<text x="720.0" y="233.0" fill="#9aa4ae" font-family="Arial, sans-serif" font-size="10" text-anchor="middle">0.96 I2C</text>
<circle cx="668.0" cy="240.0" r="3.2" fill="#facd5f" stroke="#281f14" stroke-width="1"/>
<circle cx="702.7" cy="240.0" r="3.2" fill="#facd5f" stroke="#281f14" stroke-width="1"/>
<circle cx="737.3" cy="240.0" r="3.2" fill="#facd5f" stroke="#281f14" stroke-width="1"/>
<circle cx="772.0" cy="240.0" r="3.2" fill="#facd5f" stroke="#281f14" stroke-width="1"/>
<rect x="550.0" y="136.0" width="80.0" height="28.0" rx="4" fill="none" stroke="#ffb950" stroke-width="2"/>
<text x="590.0" y="148.0" fill="#ffb950" font-family="Arial, sans-serif" font-size="12" text-anchor="middle">Resistor</text>
<text x="590.0" y="179.0" fill="#e1e4e8" font-family="Arial, sans-serif" font-size="11" text-anchor="middle">R1</text>
<text x="590.0" y="129.0" fill="#9aa4ae" font-family="Arial, sans-serif" font-size="10" text-anchor="middle">4.7k</text>
<circle cx="550.0" cy="150.0" r="3.2" fill="#facd5f" stroke="#281f14" stroke-width="1"/>
<circle cx="630.0" cy="150.0" r="3.2" fill="#facd5f" stroke="#281f14" stroke-width="1"/>
<rect x="650.0" y="136.0" width="80.0" height="28.0" rx="4" fill="none" stroke="#ffb950" stroke-width="2"/>
<text x="690.0" y="148.0" fill="#ffb950" font-family="Arial, sans-serif" font-size="12" text-anchor="middle">Resistor</text>
<text x="690.0" y="179.0" fill="#e1e4e8" font-family="Arial, sans-serif" font-size="11" text-anchor="middle">R2</text>
<text x="690.0" y="129.0" fill="#9aa4ae" font-family="Arial, sans-serif" font-size="10" text-anchor="middle">4.7k</text>
<circle cx="650.0" cy="150.0" r="3.2" fill="#facd5f" stroke="#281f14" stroke-width="1"/>
<circle cx="730.0" cy="150.0" r="3.2" fill="#facd5f" stroke="#281f14" stroke-width="1"/>
</g>
</svg>
